<svg xmlns="http://www.w3.org/2000/svg" role="img"
  viewBox="0 0 24 24"
  fill="#fff"
>
  <defs>
    <mask id="holes" fill="#000">
      <circle cx="12" cy="12" r="12" fill="#fff" />
      <circle cx="12" cy="12" r="11" />

      <g fill="#fff">
        <circle cx="26" cy="12" r="5" />
        <circle cx="19" cy="24" r="5" />
        <circle cx="5" cy="24" r="5" />
        <circle cx="-2" cy="12" r="5" />
        <circle cx="5" cy="0" r="5" />
        <circle cx="19" cy="0" r="5" />
      </g>

      <circle cx="26" cy="12" r="4" />
      <circle cx="19" cy="24" r="4" />
      <circle cx="5" cy="24" r="4" />
      <circle cx="-2" cy="12" r="4" />
      <circle cx="5" cy="0" r="4" />
      <circle cx="19" cy="0" r="4" />
    </mask>
  </defs>

  <circle cx="12" cy="12" r="12" fill="#fff" mask="url(#holes)" />

  <circle cx="12" cy="4" r="2.5" />
  <circle cx="19" cy="8" r="2.5" />
  <circle cx="19" cy="16" r="2.5" />
  <circle cx="12" cy="20" r="2.5" />
  <circle cx="5" cy="16" r="2.5" />
  <circle cx="5" cy="8" r="2.5" />

  <polyline points="12,4 19,8 19,16 12,20 5,16 5,8 12,4" fill="none" stroke="#fff" />
</svg>
